<svg width="13" height="13" viewBox="0 0 13 13" fill="none" xmlns="http://www.w3.org/2000/svg">
<g clip-path="url(#clip0_34_564)">
<path d="M12.8372 2.40694C12.3598 2.61365 11.8511 2.75067 11.3208 2.8172C11.8664 2.49564 12.2828 1.99033 12.4785 1.38127C11.9699 1.68065 11.4082 1.89212 10.8097 2.01013C10.3267 1.50245 9.63832 1.18802 8.88734 1.18802C7.43032 1.18802 6.25732 2.35545 6.25732 3.78663C6.25732 3.99256 6.27498 4.19056 6.3183 4.37906C4.13036 4.27372 2.19436 3.23856 0.893789 1.66165C0.666731 2.05053 0.533545 2.49564 0.533545 2.97481C0.533545 3.87455 1.0029 4.67211 1.70253 5.13386C1.27971 5.12594 0.864905 5.00476 0.513487 4.81388C0.513487 4.8218 0.513487 4.8321 0.513487 4.84239C0.513487 6.10487 1.42573 7.15351 2.62199 7.39507C2.40777 7.45289 2.1743 7.48061 1.932 7.48061C1.76351 7.48061 1.59342 7.47111 1.43375 7.43626C1.77474 8.46509 2.74234 9.22147 3.89288 9.24602C2.99748 9.93745 1.86059 10.3541 0.629824 10.3541C0.413999 10.3541 0.207 10.3446 0 10.3184C1.16578 11.0605 2.54738 11.4843 4.03729 11.4843C8.88012 11.4843 11.5278 7.52417 11.5278 4.09156C11.5278 3.97672 11.5238 3.86584 11.5182 3.75574C12.0405 3.38983 12.4793 2.93284 12.8372 2.40694Z" fill="#402F2C"/>
</g>
<defs>
<clipPath id="clip0_34_564">
<rect width="12.8372" height="12.6723" fill="white"/>
</clipPath>
</defs>
</svg>
