<svg width="13" height="13" viewBox="0 0 13 13" fill="none" xmlns="http://www.w3.org/2000/svg">
<g clip-path="url(#clip0_34_568)">
<path d="M12.8251 3.72569C12.795 3.05236 12.6847 2.58946 12.5267 2.18834C12.3637 1.76257 12.1129 1.38137 11.7844 1.06448C11.4634 0.742663 11.0747 0.492594 10.6484 0.334198C10.2397 0.17822 9.7732 0.0693345 9.09111 0.0396473C8.40392 0.00744596 8.18577 0 6.44288 0C4.7 0 4.48184 0.00744596 3.79721 0.0371331C3.11512 0.0668203 2.64619 0.175802 2.23995 0.331684C1.80854 0.492594 1.42239 0.740148 1.10137 1.06448C0.775366 1.38137 0.522142 1.76508 0.361587 2.18592C0.203579 2.58946 0.0932774 3.04985 0.063204 3.72318C0.0305836 4.40153 0.0230408 4.61689 0.0230408 6.33739C0.0230408 8.05789 0.0305836 8.27324 0.060657 8.94909C0.0907305 9.62241 0.20113 10.0853 0.359138 10.4864C0.522142 10.9122 0.775366 11.2934 1.10137 11.6103C1.42239 11.9321 1.81109 12.1822 2.2374 12.3406C2.64619 12.4966 3.11257 12.6054 3.79476 12.6351C4.47929 12.6649 4.69755 12.6723 6.44043 12.6723C8.18332 12.6723 8.40148 12.6649 9.08611 12.6351C9.7682 12.6054 10.2371 12.4966 10.6434 12.3406C11.5061 12.0113 12.1882 11.338 12.5217 10.4864C12.6796 10.0829 12.79 9.62241 12.8201 8.94909C12.8502 8.27324 12.8577 8.05789 12.8577 6.33739C12.8577 4.61689 12.8552 4.40153 12.8251 3.72569ZM11.6691 8.89957C11.6415 9.51846 11.5362 9.85266 11.4484 10.0755C11.2327 10.6275 10.7888 11.0657 10.2296 11.2786C10.0039 11.3653 9.66289 11.4692 9.03841 11.4964C8.36131 11.5262 8.15824 11.5335 6.44543 11.5335C4.73262 11.5335 4.527 11.5262 3.85236 11.4964C3.22542 11.4692 2.88687 11.3653 2.66118 11.2786C2.38287 11.1771 2.12955 11.0162 1.92394 10.8057C1.71078 10.6003 1.54777 10.3527 1.44492 10.078C1.35714 9.85517 1.25184 9.51846 1.22431 8.90209C1.19414 8.23369 1.1867 8.03313 1.1867 6.34232C1.1867 4.6515 1.19414 4.44853 1.22431 3.78265C1.25184 3.16376 1.35714 2.82956 1.44492 2.60677C1.54777 2.33194 1.71078 2.08197 1.92648 1.8789C2.13455 1.66848 2.38532 1.50757 2.66372 1.40613C2.88942 1.31948 3.23051 1.21553 3.8549 1.18826C4.532 1.15857 4.73516 1.15113 6.44788 1.15113C8.16324 1.15113 8.36631 1.15857 9.04095 1.18826C9.66789 1.21553 10.0064 1.31948 10.2321 1.40613C10.5104 1.50757 10.7638 1.66848 10.9694 1.8789C11.1825 2.08439 11.3455 2.33194 11.4484 2.60677C11.5362 2.82956 11.6415 3.16618 11.6691 3.78265C11.6992 4.45104 11.7067 4.6515 11.7067 6.34232C11.7067 8.03313 11.6992 8.23118 11.6691 8.89957Z" fill="#402F2C"/>
<path d="M6.44244 3.08197C4.62187 3.08197 3.14474 4.54003 3.14474 6.33731C3.14474 8.13459 4.62187 9.59265 6.44244 9.59265C8.2631 9.59265 9.74013 8.13459 9.74013 6.33731C9.74013 4.54003 8.2631 3.08197 6.44244 3.08197ZM6.44244 8.44896C5.26135 8.44896 4.30331 7.50333 4.30331 6.33731C4.30331 5.17129 5.26135 4.22565 6.44244 4.22565C7.62363 4.22565 8.58157 5.17129 8.58157 6.33731C8.58157 7.50333 7.62363 8.44896 6.44244 8.44896Z" fill="#402F2C"/>
<path d="M10.6405 2.95336C10.6405 3.37304 10.2957 3.71334 9.87051 3.71334C9.44537 3.71334 9.10065 3.37304 9.10065 2.95336C9.10065 2.53358 9.44537 2.19339 9.87051 2.19339C10.2957 2.19339 10.6405 2.53358 10.6405 2.95336Z" fill="#402F2C"/>
</g>
<defs>
<clipPath id="clip0_34_568">
<rect width="12.8372" height="12.6723" fill="white"/>
</clipPath>
</defs>
</svg>
